<svg width="58" height="31" viewBox="0 0 58 31" fill="none" xmlns="http://www.w3.org/2000/svg">
<path d="M4 23.4444L30.2887 4L54 23.4444" stroke="#FF8C42" stroke-width="5" stroke-linecap="square"/>
<path d="M13.2453 29.9259V20.1259H16.4933C17.1699 20.1259 17.8023 20.2542 18.3903 20.5109C18.9829 20.7629 19.5033 21.1152 19.9513 21.5679C20.4039 22.0159 20.7563 22.5362 21.0083 23.1289C21.2649 23.7169 21.3933 24.3492 21.3933 25.0259C21.3933 25.7026 21.2649 26.3372 21.0083 26.9299C20.7563 27.5179 20.4039 28.0382 19.9513 28.4909C19.5033 28.9389 18.9829 29.2912 18.3903 29.5479C17.8023 29.7999 17.1699 29.9259 16.4933 29.9259H13.2453ZM15.3453 27.8259H16.4933C16.8713 27.8259 17.2283 27.7536 17.5643 27.6089C17.9003 27.4642 18.1989 27.2636 18.4603 27.0069C18.7216 26.7502 18.9246 26.4539 19.0693 26.1179C19.2186 25.7772 19.2933 25.4132 19.2933 25.0259C19.2933 24.6386 19.2186 24.2769 19.0693 23.9409C18.9246 23.6049 18.7216 23.3086 18.4603 23.0519C18.2036 22.7906 17.9073 22.5876 17.5713 22.4429C17.2353 22.2982 16.8759 22.2259 16.4933 22.2259H15.3453V27.8259ZM25.4444 30.1079C24.8004 30.1079 24.2124 29.9422 23.6804 29.6109C23.1531 29.2796 22.7307 28.8362 22.4134 28.2809C22.1007 27.7209 21.9444 27.1026 21.9444 26.4259C21.9444 25.9126 22.0354 25.4342 22.2174 24.9909C22.3994 24.5429 22.6491 24.1509 22.9664 23.8149C23.2884 23.4742 23.6617 23.2082 24.0864 23.0169C24.5111 22.8256 24.9637 22.7299 25.4444 22.7299C26.0884 22.7299 26.6741 22.8956 27.2014 23.2269C27.7334 23.5582 28.1557 24.0039 28.4684 24.5639C28.7857 25.1239 28.9444 25.7446 28.9444 26.4259C28.9444 26.9346 28.8534 27.4106 28.6714 27.8539C28.4894 28.2972 28.2374 28.6892 27.9154 29.0299C27.5981 29.3659 27.2271 29.6296 26.8024 29.8209C26.3824 30.0122 25.9297 30.1079 25.4444 30.1079ZM25.4444 28.0079C25.7104 28.0079 25.9484 27.9356 26.1584 27.7909C26.3731 27.6462 26.5411 27.4549 26.6624 27.2169C26.7837 26.9742 26.8444 26.7106 26.8444 26.4259C26.8444 26.1319 26.7791 25.8636 26.6484 25.6209C26.5224 25.3782 26.3521 25.1869 26.1374 25.0469C25.9274 24.9022 25.6964 24.8299 25.4444 24.8299C25.1831 24.8299 24.9451 24.9046 24.7304 25.0539C24.5204 25.1986 24.3524 25.3922 24.2264 25.6349C24.1051 25.8776 24.0444 26.1412 24.0444 26.4259C24.0444 26.7246 24.1074 26.9929 24.2334 27.2309C24.3641 27.4689 24.5344 27.6579 24.7444 27.7979C24.9591 27.9379 25.1924 28.0079 25.4444 28.0079ZM29.9933 29.9259V22.9259H32.0933V23.3669C32.3267 23.1662 32.5927 23.0099 32.8913 22.8979C33.19 22.7859 33.505 22.7299 33.8363 22.7299C34.303 22.7299 34.7323 22.8372 35.1243 23.0519C35.5163 23.2619 35.8337 23.5442 36.0763 23.8989C36.3237 23.5442 36.641 23.2619 37.0283 23.0519C37.4203 22.8372 37.8473 22.7299 38.3093 22.7299C38.8133 22.7299 39.2707 22.8536 39.6813 23.1009C40.092 23.3436 40.4187 23.6702 40.6613 24.0809C40.9087 24.4916 41.0323 24.9489 41.0323 25.4529V29.9259H38.9323V26.0409C38.9323 25.8216 38.8787 25.6232 38.7713 25.4459C38.664 25.2686 38.5217 25.1262 38.3443 25.0189C38.167 24.9116 37.9687 24.8579 37.7493 24.8579C37.53 24.8579 37.3293 24.9116 37.1473 25.0189C36.97 25.1262 36.8277 25.2686 36.7203 25.4459C36.613 25.6232 36.5593 25.8216 36.5593 26.0409V29.9259H34.4593V26.0409C34.4593 25.8216 34.4057 25.6232 34.2983 25.4459C34.1957 25.2686 34.0533 25.1262 33.8713 25.0189C33.694 24.9116 33.4957 24.8579 33.2763 24.8579C33.0617 24.8579 32.8633 24.9116 32.6813 25.0189C32.504 25.1262 32.3617 25.2686 32.2543 25.4459C32.147 25.6232 32.0933 25.8216 32.0933 26.0409V29.9259H29.9933Z" fill="#4E598C"/>
<line x1="43.05" y1="23" x2="43.05" y2="30" stroke="#4E598C" stroke-width="2.1"/>
<path fill-rule="evenodd" clip-rule="evenodd" d="M43.6519 22.2454C43.6352 22.3503 43.5319 22.4336 43.4086 22.4336H42.7919C42.6686 22.4336 42.5652 22.3503 42.5502 22.2377L42.5052 21.946C42.4602 21.9244 42.4169 21.9012 42.3736 21.875L42.0736 21.9861C41.9569 22.0262 41.8286 21.9815 41.7719 21.8858L41.4669 21.3966C41.4086 21.2948 41.4336 21.1744 41.5269 21.1065L41.7819 20.9228C41.7802 20.8997 41.7786 20.8765 41.7786 20.8519C41.7786 20.8287 41.7802 20.804 41.7819 20.7809L41.5286 20.5972C41.4302 20.5278 41.4052 20.4028 41.4669 20.3071L41.7752 19.8148C41.8319 19.7191 41.9602 19.6759 42.0736 19.7176L42.3752 19.8302C42.4186 19.804 42.4619 19.7809 42.5052 19.7593L42.5502 19.4645C42.5652 19.3565 42.6686 19.2716 42.7902 19.2716H43.4069C43.5302 19.2716 43.6336 19.3549 43.6486 19.4676L43.6936 19.7593C43.7386 19.7809 43.7819 19.804 43.8252 19.8302L44.1252 19.7191C44.2436 19.679 44.3719 19.7238 44.4286 19.8194L44.7352 20.3102C44.7952 20.412 44.7686 20.5324 44.6752 20.6003L44.4219 20.784C44.4236 20.8071 44.4252 20.8302 44.4252 20.8549C44.4252 20.8796 44.4236 20.9028 44.4219 20.9259L44.6752 21.1096C44.7686 21.179 44.7952 21.2994 44.7369 21.3966L44.4269 21.8935C44.3702 21.9892 44.2419 22.0324 44.1269 21.9907L43.8269 21.8796C43.7836 21.9059 43.7402 21.929 43.6969 21.9506L43.6519 22.2454ZM42.8702 22.125H43.3302L43.3919 21.7315L43.4802 21.6975C43.5536 21.6698 43.6269 21.6296 43.7036 21.5772L43.7786 21.5247L44.1752 21.6728L44.4052 21.3025L44.0669 21.0586L44.0786 20.9722L44.0791 20.9681C44.0839 20.9294 44.0886 20.8921 44.0886 20.8519C44.0886 20.8102 44.0836 20.7701 44.0786 20.7315L44.0669 20.6451L44.4052 20.4012L44.1736 20.0309L43.7752 20.179L43.7002 20.125C43.6302 20.0756 43.5552 20.0355 43.4786 20.0062L43.3919 19.9722L43.3302 19.5787H42.8702L42.8086 19.9722L42.7202 20.0046C42.6469 20.034 42.5736 20.0725 42.4969 20.1265L42.4219 20.1775L42.0252 20.0309L41.7936 20.3997L42.1319 20.6435L42.1202 20.7299C42.1152 20.7701 42.1102 20.8117 42.1102 20.8519C42.1102 20.892 42.1136 20.9336 42.1202 20.9722L42.1319 21.0586L41.7936 21.3025L42.0236 21.6728L42.4219 21.5247L42.4969 21.5787C42.5686 21.6296 42.6402 21.6682 42.7186 21.6975L42.8069 21.7315L42.8702 22.125ZM43.6836 20.8519C43.6836 21.1502 43.4224 21.392 43.1002 21.392C42.7781 21.392 42.5169 21.1502 42.5169 20.8519C42.5169 20.5536 42.7781 20.3117 43.1002 20.3117C43.4224 20.3117 43.6836 20.5536 43.6836 20.8519Z" fill="#FF8C42"/>
</svg>
